<svg width="100" height="100" viewBox="0 0 100 100" fill="none" xmlns="http://www.w3.org/2000/svg">
<g clip-path="url(#clip0_3731_13801)">
<rect width="100" height="100" rx="50" fill="white"/>
<path d="M114 82.9522C113.763 83.3242 113.417 83.3972 112.994 83.4012C111.343 83.4172 109.693 83.4712 108.042 83.5052C107.416 83.5182 106.789 83.5122 106.163 83.5192C102.307 83.5592 98.45 83.5942 94.594 83.6412C89.688 83.7012 84.783 83.7762 79.877 83.8362C76.704 83.8752 73.531 83.9012 70.358 83.9292C64.557 83.9812 58.756 84.0312 52.955 84.0822C49.343 84.1132 45.73 84.1432 42.118 84.1752C36.431 84.2252 30.744 84.2782 25.057 84.3262C22.901 84.3442 20.745 84.3702 18.589 84.3572C17.354 84.3492 16.12 84.2672 14.885 84.2252C14.546 84.2132 14.252 84.1042 13.999 83.8802C13.999 83.6032 13.999 83.3272 13.999 83.0502C14.327 82.7272 14.749 82.6912 15.174 82.6702C15.921 82.6342 16.669 82.6062 17.417 82.5742C18.116 82.5442 18.814 82.4922 19.513 82.4862C24.916 82.4362 30.32 82.3952 35.723 82.3512C36.014 82.3492 36.305 82.3512 36.637 82.3512C36.47 81.6592 36.46 81.0092 36.613 80.3602C36.765 79.7172 37.041 79.1352 37.496 78.6252C37.364 78.5292 37.233 78.4572 37.132 78.3552C36.831 78.0512 36.54 77.7362 36.248 77.4222C36.193 77.3632 36.164 77.2772 36.104 77.2262C35.304 76.5482 35.067 75.5822 34.767 74.6462C34.742 74.5672 34.698 74.4772 34.635 74.4312C33.025 73.2742 32.421 71.4492 33.062 69.5982C33.53 68.2452 34.436 67.3562 35.862 67.0422C35.938 67.0252 36.037 66.9652 36.064 66.9002C36.615 65.5582 37.608 64.5932 38.746 63.7562C40.043 62.8012 41.484 62.1572 43.059 61.8292C45.867 61.2442 48.509 61.6812 50.977 63.1502C51.037 63.1862 51.102 63.2142 51.179 63.2522C51.221 63.0312 51.242 62.8292 51.299 62.6382C51.712 61.2532 52.685 60.4102 53.995 59.9232C54.907 59.5842 55.842 59.5312 56.803 59.7582C57.29 59.8732 57.803 59.8782 58.302 59.9472C59.284 60.0832 60.265 60.2302 61.247 60.3712C61.332 60.3832 61.418 60.3922 61.504 60.4032C61.514 60.3842 61.524 60.3662 61.534 60.3472C61.405 60.2442 61.276 60.1402 61.146 60.0372C58.819 58.2042 57.268 55.8612 56.594 52.9742C55.687 49.0872 56.537 45.5342 58.842 42.3362C61.235 39.0162 64.534 37.0562 68.527 36.3092C73.002 35.4722 77.125 36.3762 80.785 39.1192C83.25 40.9672 84.839 43.4262 85.569 46.4242C85.688 46.9132 85.836 47.2152 86.426 47.3262C87.611 47.5482 88.456 48.3212 89.043 49.3562C90.236 51.4562 89.663 54.2562 87.759 55.7402C86.594 56.6472 85.289 56.7752 83.899 56.4512C83.844 56.4382 83.79 56.4202 83.74 56.4052C83.139 57.3572 82.42 58.2012 81.622 58.9812C80.822 59.7622 79.935 60.4342 79.002 61.0242C79.006 61.0662 79.001 61.0882 79.009 61.0972C80.012 62.2462 80.616 63.6102 81.131 65.0232C82.04 67.5162 82.63 70.0902 83.082 72.6982C83.465 74.9062 83.705 77.1302 83.669 79.3742C83.656 80.1692 83.552 80.9622 83.49 81.7562C83.484 81.8342 83.479 81.9122 83.472 82.0142C83.592 82.0192 83.688 82.0272 83.783 82.0272C86.477 82.0182 89.17 82.0052 91.864 81.9982C96.25 81.9852 100.636 81.9722 105.023 81.9662C107.545 81.9632 110.068 81.9732 112.59 81.9772C112.72 81.9772 112.852 81.9862 112.98 81.9662C113.419 81.8982 113.764 82.0302 114.001 82.4142C114 82.5942 114 82.7732 114 82.9522ZM72.672 78.5182C73.637 78.4522 74.605 78.4142 75.566 78.3132C77.208 78.1402 78.807 77.7752 80.308 77.0612C81.078 76.6942 81.762 76.2212 82.136 75.4142C82.187 75.3042 82.22 75.1652 82.204 75.0462C81.896 72.7802 81.46 70.5392 80.853 68.3322C80.365 66.5572 79.806 64.8062 78.994 63.1512C78.768 62.6902 78.443 62.2732 78.131 61.8612C77.944 61.6142 77.681 61.4942 77.368 61.7032C77.289 61.7562 77.187 61.7752 77.095 61.8072C74.077 62.8352 70.975 62.9582 67.837 62.6512C67.183 62.5872 66.536 62.4462 65.884 62.3552C64.72 62.1922 63.553 62.0522 62.391 61.8792C61.435 61.7362 60.482 61.5672 59.531 61.3922C59.305 61.3502 59.262 61.4272 59.228 61.6272C58.971 63.1092 58.707 64.5902 58.43 66.0682C58.387 66.3002 58.446 66.3782 58.666 66.4322C60.585 66.9022 62.45 67.5472 64.329 68.1532C65.175 68.4262 66.064 68.5712 66.939 68.7512C67.32 68.8292 67.714 68.8362 68.099 68.8992C68.324 68.9352 68.454 69.0962 68.456 69.3292C68.459 69.5632 68.332 69.7142 68.11 69.7702C67.986 69.8012 67.854 69.8122 67.725 69.8142C66.667 69.8302 65.638 69.6202 64.615 69.3892C64.373 69.3342 64.293 69.3872 64.221 69.6122C63.556 71.6752 63.294 73.7992 63.255 75.9562C63.243 76.6342 63.25 76.6292 63.889 76.8742C66.715 77.9582 69.642 78.4842 72.672 78.5182ZM52.202 78.9252C52.225 78.9522 52.265 79.0032 52.307 79.0502C53.039 79.8622 53.396 80.8312 53.492 81.9062C53.521 82.2272 53.514 82.2302 53.849 82.2282C56.754 82.2102 59.658 82.1912 62.563 82.1712C62.646 82.1702 62.729 82.1572 62.844 82.1472C62.419 81.4472 62.173 80.7252 62.007 79.9762C61.586 78.0762 61.521 76.1572 61.707 74.2242C61.871 72.5132 62.231 70.8502 62.927 69.2702C62.956 69.2042 62.978 69.1362 63.006 69.0612C60.059 68.1462 57.127 67.2352 54.205 66.3272C56.566 71.0152 55.623 75.1422 52.202 78.9252ZM82.436 77.1602C82.388 77.1642 82.369 77.1592 82.358 77.1672C82.325 77.1902 82.293 77.2162 82.263 77.2432C81.487 77.9472 80.596 78.4612 79.619 78.8242C77.762 79.5142 75.83 79.8032 73.86 79.8722C72.238 79.9282 70.624 79.8302 69.021 79.5752C67.075 79.2652 65.184 78.7802 63.451 77.7982C63.418 77.7792 63.379 77.7702 63.347 77.7582C63.328 77.7832 63.312 77.7942 63.311 77.8072C63.307 77.8552 63.305 77.9052 63.309 77.9532C63.396 78.9862 63.563 80.0032 63.916 80.9822C64.048 81.3482 64.231 81.7052 64.033 82.1302C64.142 82.1372 64.212 82.1462 64.282 82.1462C68.293 82.1222 72.304 82.0982 76.314 82.0732C78.177 82.0612 80.04 82.0462 81.903 82.0422C82.122 82.0422 82.235 81.9722 82.275 81.7602C82.316 81.5452 82.405 81.3332 82.413 81.1182C82.45 80.0302 82.472 78.9422 82.489 77.8542C82.494 77.6232 82.455 77.3912 82.436 77.1602ZM75.956 38.3522C76.022 38.4262 76.05 38.4632 76.083 38.4932C77.271 39.5692 78.16 40.8672 78.844 42.3022C79.987 44.7002 80.449 47.2342 80.317 49.8852C80.23 51.6392 79.905 53.3392 79.245 54.9682C78.208 57.5272 76.618 59.6152 74.121 60.9202C74.087 60.9382 74.059 60.9652 74.028 60.9872C74.359 60.9652 74.682 60.9252 74.99 60.8332C75.876 60.5672 76.804 60.3792 77.629 59.9822C79.389 59.1372 80.798 57.8352 81.951 56.2622C82.077 56.0902 82.162 55.8802 82.226 55.6762C82.254 55.5852 82.219 55.4272 82.152 55.3622C81.224 54.4532 80.812 53.3232 80.822 52.0582C80.839 50.0032 81.948 48.2462 83.899 47.4632C84.051 47.4022 84.1 47.3262 84.061 47.1712C83.959 46.7692 83.893 46.3562 83.76 45.9652C82.48 42.1892 79.872 39.7382 76.166 38.3932C76.116 38.3762 76.061 38.3732 75.956 38.3522ZM42.26 78.5912C40.842 76.2402 40.541 73.7012 40.649 71.0912C40.758 68.4682 41.405 65.9962 42.951 63.7672C42.849 63.7842 42.809 63.7872 42.772 63.7982C40.872 64.3522 39.298 65.3972 38.05 66.9322C37.984 67.0132 37.941 67.1122 37.892 67.2052C37.835 67.3142 37.854 67.3912 37.967 67.4682C39.356 68.4112 39.905 69.7582 39.657 71.3742C39.413 72.9612 38.558 74.1422 36.97 74.6652C36.723 74.7462 36.663 74.8592 36.706 75.0812C36.722 75.1612 36.732 75.2442 36.763 75.3172C36.948 75.7592 37.138 76.1992 37.327 76.6402C37.502 77.0502 37.813 77.3062 38.212 77.5002C39.308 78.0332 40.477 78.3002 41.664 78.5132C41.843 78.5452 42.025 78.5612 42.26 78.5912ZM52.116 82.2152C52.116 82.1402 52.124 82.0912 52.115 82.0452C51.97 81.3102 51.68 80.6332 51.273 80.0072C51.208 79.9062 51.113 79.8242 51.028 79.7372C50.92 79.6262 50.804 79.6162 50.652 79.6682C50.23 79.8142 49.806 79.9642 49.372 80.0672C47.137 80.5982 44.883 80.5332 42.629 80.2302C41.222 80.0412 39.848 79.7092 38.537 79.1442C38.478 79.1192 38.344 79.1392 38.32 79.1822C37.874 79.9662 37.651 80.8052 37.786 81.7092C37.847 82.1202 38.139 82.3342 38.551 82.3312C42.985 82.2992 47.419 82.2662 51.854 82.2332C51.939 82.2322 52.025 82.2222 52.116 82.2152ZM64.072 45.4732C64.077 44.9542 63.998 44.4602 63.754 44.0042C63.485 43.5012 63.066 43.1742 62.493 43.1782C62.148 43.1812 61.798 43.3102 61.463 43.4212C61.008 43.5722 60.755 43.9752 60.443 44.3042C59.355 45.4532 58.702 46.8062 58.545 48.3842C58.485 48.9852 58.566 49.5732 58.867 50.1092C59.221 50.7392 59.856 51.0252 60.561 50.8832C61.018 50.7912 61.421 50.5802 61.771 50.2782C63.238 49.0122 63.94 47.3772 64.072 45.4732ZM88.203 51.6742C88.178 51.4442 88.17 51.2152 88.125 50.9932C87.688 48.7952 85.319 47.8562 83.548 49.1752C82.307 50.0992 81.799 51.8422 82.284 53.3122C82.808 54.8992 84.637 55.7982 86.2 54.9202C87.481 54.2012 88.103 53.1082 88.203 51.6742ZM56.983 65.9612C57.319 64.3632 57.649 62.7932 57.987 61.1852C57.689 61.1542 57.394 61.1132 57.098 61.0962C56.5 61.0622 55.896 60.9812 55.304 61.0312C54.399 61.1082 53.591 61.4772 52.944 62.1352C52.042 63.0522 52.2 64.2522 53.33 64.8572C53.76 65.0872 54.247 65.2182 54.72 65.3562C55.458 65.5732 56.207 65.7562 56.983 65.9612ZM38.213 70.6872C38.2 70.5012 38.201 70.3122 38.172 70.1292C38.045 69.3492 37.688 68.7152 36.907 68.4472C36.123 68.1782 35.45 68.4492 34.89 69.0182C34.187 69.7332 33.932 70.6032 34.056 71.5892C34.157 72.3922 34.581 72.9712 35.331 73.2642C36.087 73.5602 36.752 73.3262 37.324 72.7912C37.929 72.2242 38.178 71.5022 38.213 70.6872ZM67.613 40.4072C67.614 39.3942 66.694 38.7062 65.725 38.9962C64.979 39.2192 64.308 40.0002 64.246 40.7682C64.218 41.1232 64.236 41.5032 64.538 41.7582C64.746 41.9342 64.987 42.0862 65.237 42.1922C65.439 42.2772 65.681 42.3262 65.898 42.3082C66.852 42.2262 67.612 41.3672 67.613 40.4072ZM53.663 70.2112C53.531 69.2032 53.253 68.2672 52.6 67.4852C52.464 67.3232 52.27 67.1972 52.08 67.0952C51.799 66.9442 51.523 67.0832 51.429 67.3872C51.352 67.6382 51.465 67.8172 51.622 68.0022C51.813 68.2282 52.036 68.4572 52.134 68.7252C52.308 69.2012 52.397 69.7092 52.524 70.2022C52.582 70.4282 52.608 70.6742 52.719 70.8722C52.787 70.9942 52.981 71.0892 53.132 71.1112C53.322 71.1392 53.473 70.9972 53.531 70.8132C53.592 70.6142 53.622 70.4042 53.663 70.2112ZM50.95 65.7802C50.962 65.3802 50.661 65.0702 50.252 65.0612C49.939 65.0542 49.704 65.2842 49.691 65.6092C49.673 66.0822 49.954 66.4252 50.364 66.4322C50.73 66.4392 50.938 66.2082 50.95 65.7802Z" fill="#4A5364"/>
<path d="M83.5329 52.0083C83.5139 51.6093 83.6219 51.2143 83.8379 50.8483C84.1269 50.3593 84.6209 50.1403 85.1699 50.2833C86.0129 50.5013 86.4199 51.0893 86.6109 51.9163C86.7919 52.7023 86.1859 53.8153 85.1729 53.9113C85.0549 53.9223 84.9239 53.9173 84.8149 53.8783C83.8249 53.5193 83.5399 53.1053 83.5329 52.0083ZM84.5229 52.1703C84.5529 52.3383 84.5699 52.5173 84.6229 52.6853C84.6429 52.7473 84.7569 52.8333 84.8109 52.8233C85.1059 52.7653 85.3799 52.6483 85.4819 52.3313C85.5769 52.0363 85.5339 51.7333 85.3339 51.5063C85.2319 51.3913 85.0189 51.3153 84.8649 51.3263C84.7679 51.3333 84.6559 51.5263 84.6059 51.6573C84.5469 51.8113 84.5489 51.9893 84.5229 52.1703Z" fill="#4A5364"/>
<path d="M37.4371 70.9349C37.4111 71.5439 37.2891 71.9559 36.9471 72.2769C36.5051 72.6909 35.9191 72.7189 35.4721 72.3149C34.9541 71.8459 34.7371 71.2499 34.8751 70.5549C34.9771 70.0369 35.4031 69.6269 35.8821 69.5429C36.3601 69.4589 36.9021 69.6989 37.1581 70.1699C37.3091 70.4459 37.3781 70.7679 37.4371 70.9349ZM36.4491 71.0989C36.4001 70.9739 36.3691 70.8349 36.2921 70.7299C36.2571 70.6809 36.1091 70.6579 36.0521 70.6919C35.8441 70.8139 35.7471 71.3239 35.8891 71.5099C35.9251 71.5569 36.0111 71.5849 36.0751 71.5859C36.2801 71.5879 36.4171 71.3909 36.4491 71.0989Z" fill="#4A5364"/>
<path d="M26.2118 33.6237C26.4343 33.504 26.5855 33.397 26.7555 33.334C27.7736 32.9582 28.7728 32.4859 29.8245 32.2445C31.464 31.8688 32.8642 32.6518 33.5821 34.2031C34.2308 35.6032 34.4428 37.1147 34.5771 38.6303C34.6905 39.9213 34.7388 41.2207 34.7241 42.5159C34.7178 43.0197 34.5667 43.5886 34.2917 44.0001C34.0649 44.338 33.5758 44.5249 33.1707 44.7075C32.8054 44.8733 32.3772 44.8985 32.0098 45.0602C30.6138 45.6752 29.1948 46.2357 27.6708 46.3869C26.9759 46.4561 26.2412 46.3596 25.5569 46.2021C24.8893 46.0489 24.5115 45.4737 24.3918 44.825C24.2155 43.872 24.0874 42.9043 24.0013 41.9365C23.7515 39.0984 23.5311 36.2561 23.3023 33.4159C23.2813 33.1619 23.3044 32.9016 23.2729 32.6476C23.0714 31.0794 23.7347 29.9354 25.0174 29.102C25.5317 28.7682 26.0439 28.4198 26.596 28.1658C27.3181 27.8341 28.015 28.0209 28.3362 28.5415C28.6448 29.0411 28.5083 29.7255 27.908 30.2251C27.3727 30.6722 26.7849 31.0585 26.1992 31.4384C25.9221 31.6168 25.8465 31.8079 25.9179 32.1165C26.025 32.5909 26.1047 33.0758 26.2118 33.6237ZM26.8878 38.6219C27.9185 38.1265 28.8295 37.6688 29.7574 37.249C30.9896 36.6885 31.0442 36.5836 30.6474 35.2884C30.532 34.9105 30.32 34.7698 29.9295 34.8244C28.8337 34.9777 27.8261 35.3765 26.8752 35.9223C26.7492 35.9958 26.5897 36.1784 26.6002 36.296C26.6694 37.0496 26.7807 37.8011 26.8878 38.6219ZM31.1114 39.6673C29.7616 40.2173 28.5944 40.6875 27.4335 41.1724C27.3622 41.2018 27.2782 41.3362 27.2866 41.4117C27.3685 42.1318 27.4671 42.8497 27.5742 43.6684C28.7519 43.2171 29.8308 42.8098 30.9035 42.3816C30.998 42.3438 31.0967 42.1758 31.1009 42.0646C31.1198 41.3194 31.1114 40.57 31.1114 39.6673Z" fill="#4A5364"/>
<path d="M15.8924 43.0852C15.4558 43.3182 15.1199 43.5134 14.7694 43.6814C14.0514 44.0298 13.4616 43.9459 13.1026 43.4609C12.7541 42.9886 12.8066 42.3253 13.344 41.7879C13.873 41.261 14.4671 40.7929 15.0612 40.3373C15.3278 40.1337 15.4285 39.9301 15.376 39.6026C15.2585 38.8826 15.164 38.1584 15.0507 37.3691C14.7022 37.4761 14.4209 37.5937 14.1291 37.6419C13.7471 37.7049 13.3482 37.7763 12.9724 37.7238C12.5022 37.6608 12.1915 37.3271 12.0572 36.8589C11.9103 36.3446 12.0488 35.8723 12.4456 35.5616C12.9515 35.167 13.5057 34.8101 14.0871 34.5351C14.5595 34.3126 14.6896 34.0376 14.6308 33.5422C14.5783 33.0909 14.6014 32.6207 14.6581 32.1672C14.7484 31.4388 15.206 30.9623 15.7959 30.8993C16.4466 30.83 16.9358 31.1764 17.2024 31.9174C17.322 32.2512 17.4123 32.5955 17.5277 32.9691C17.8027 32.9208 18.0483 32.8663 18.296 32.8348C19.0643 32.7382 19.6731 33.0573 19.9355 33.687C20.2 34.321 19.9775 35.0347 19.3519 35.4882C19.1315 35.6477 18.8922 35.7946 18.6403 35.887C18.2666 36.0235 18.1995 36.2418 18.2981 36.6007C18.4199 37.0437 18.5081 37.4992 18.5815 37.9526C18.6298 38.2549 18.7474 38.3452 19.0601 38.2927C20.0237 38.129 20.601 38.3641 20.8466 38.9728C21.1048 39.6194 20.8088 40.2597 19.9985 40.8033C19.2428 41.3114 19.2575 41.3093 19.4128 42.2035C19.6584 43.6163 19.9187 45.027 20.1014 46.446C20.2567 47.6489 20.0048 48.7635 18.8628 49.4227C17.702 50.0923 16.5222 49.9328 15.4117 49.2611C14.7652 48.8706 14.3957 48.2807 14.5448 47.4956C14.6854 46.7441 15.227 46.3747 15.9386 46.2592C16.2997 46.2004 16.3795 46.0472 16.3207 45.7092C16.1632 44.8653 16.0394 44.0109 15.8924 43.0852Z" fill="#4A5364"/>
<path d="M51.2118 15.6237C51.4343 15.504 51.5855 15.397 51.7555 15.334C52.7736 14.9582 53.7728 14.4859 54.8245 14.2445C56.464 13.8688 57.8642 14.6518 58.5821 16.2031C59.2308 17.6032 59.4428 19.1147 59.5771 20.6303C59.6905 21.9213 59.7388 23.2207 59.7241 24.5159C59.7178 25.0197 59.5667 25.5886 59.2917 26.0001C59.0649 26.338 58.5758 26.5249 58.1707 26.7075C57.8054 26.8733 57.3772 26.8985 57.0098 27.0602C55.6138 27.6752 54.1948 28.2357 52.6708 28.3869C51.9759 28.4561 51.2412 28.3596 50.5569 28.2021C49.8893 28.0489 49.5115 27.4737 49.3918 26.825C49.2155 25.872 49.0874 24.9043 49.0013 23.9365C48.7515 21.0984 48.5311 18.2561 48.3023 15.4159C48.2813 15.1619 48.3044 14.9016 48.2729 14.6476C48.0714 13.0794 48.7347 11.9354 50.0174 11.102C50.5317 10.7682 51.0439 10.4198 51.596 10.1658C52.3181 9.83408 53.015 10.0209 53.3362 10.5415C53.6448 11.0411 53.5083 11.7255 52.908 12.2251C52.3727 12.6722 51.7849 13.0585 51.1992 13.4384C50.9221 13.6168 50.8465 13.8079 50.9179 14.1165C51.025 14.5909 51.1047 15.0758 51.2118 15.6237ZM51.8878 20.6219C52.9185 20.1265 53.8295 19.6688 54.7574 19.249C55.9896 18.6885 56.0442 18.5836 55.6474 17.2884C55.532 16.9105 55.32 16.7698 54.9295 16.8244C53.8337 16.9777 52.8261 17.3765 51.8752 17.9223C51.7492 17.9958 51.5897 18.1784 51.6002 18.296C51.6694 19.0496 51.7807 19.8011 51.8878 20.6219ZM56.1114 21.6673C54.7616 22.2173 53.5944 22.6875 52.4335 23.1724C52.3622 23.2018 52.2782 23.3362 52.2866 23.4117C52.3685 24.1318 52.4671 24.8497 52.5742 25.6684C53.7519 25.2171 54.8308 24.8098 55.9035 24.3816C55.998 24.3438 56.0967 24.1758 56.1009 24.0646C56.1198 23.3194 56.1114 22.57 56.1114 21.6673Z" fill="#4A5364"/>
<path d="M40.8924 25.0852C40.4558 25.3182 40.1199 25.5134 39.7694 25.6814C39.0514 26.0298 38.4616 25.9459 38.1026 25.4609C37.7541 24.9886 37.8066 24.3253 38.344 23.7879C38.873 23.261 39.4671 22.7929 40.0612 22.3373C40.3278 22.1337 40.4285 21.9301 40.376 21.6026C40.2585 20.8826 40.164 20.1584 40.0507 19.3691C39.7022 19.4761 39.4209 19.5937 39.1291 19.6419C38.7471 19.7049 38.3482 19.7763 37.9724 19.7238C37.5022 19.6608 37.1915 19.3271 37.0572 18.8589C36.9103 18.3446 37.0488 17.8723 37.4456 17.5616C37.9515 17.167 38.5057 16.8101 39.0871 16.5351C39.5595 16.3126 39.6896 16.0376 39.6308 15.5422C39.5783 15.0909 39.6014 14.6207 39.6581 14.1672C39.7484 13.4388 40.206 12.9623 40.7959 12.8993C41.4466 12.83 41.9358 13.1764 42.2024 13.9174C42.322 14.2512 42.4123 14.5955 42.5277 14.9691C42.8027 14.9208 43.0483 14.8663 43.296 14.8348C44.0643 14.7382 44.6731 15.0573 44.9355 15.687C45.2 16.321 44.9775 17.0347 44.3519 17.4882C44.1315 17.6477 43.8922 17.7946 43.6403 17.887C43.2666 18.0235 43.1995 18.2418 43.2981 18.6007C43.4199 19.0437 43.5081 19.4992 43.5815 19.9526C43.6298 20.2549 43.7474 20.3452 44.0601 20.2927C45.0237 20.129 45.601 20.3641 45.8466 20.9728C46.1048 21.6194 45.8088 22.2597 44.9985 22.8033C44.2428 23.3114 44.2575 23.3093 44.4128 24.2035C44.6584 25.6163 44.9187 27.027 45.1014 28.446C45.2567 29.6489 45.0048 30.7635 43.8628 31.4227C42.702 32.0923 41.5222 31.9328 40.4117 31.2611C39.7652 30.8706 39.3957 30.2807 39.5448 29.4956C39.6854 28.7441 40.227 28.3747 40.9386 28.2592C41.2997 28.2004 41.3795 28.0472 41.3207 27.7092C41.1632 26.8653 41.0394 26.0109 40.8924 25.0852Z" fill="#4A5364"/>
</g>
<rect x="1.5" y="1.5" width="97" height="97" rx="48.5" stroke="#4A5364" stroke-width="3"/>
<defs>
<clipPath id="clip0_3731_13801">
<rect width="100" height="100" rx="50" fill="white"/>
</clipPath>
</defs>
</svg>
