<svg width="25" height="24" viewBox="0 0 25 24" fill="none" xmlns="http://www.w3.org/2000/svg">
<path d="M20.4668 9.77435C20.3941 9.57896 20.2635 9.41041 20.0924 9.2912C19.9214 9.17198 19.7181 9.10778 19.5096 9.10716H15.3655C15.295 9.10721 15.2262 9.08536 15.1687 9.04463C15.1111 9.0039 15.0676 8.94629 15.0442 8.87978L13.5566 4.66356C13.4838 4.46868 13.3531 4.30072 13.1822 4.18213C13.0112 4.06354 12.8082 4 12.6001 4C12.3921 4 12.189 4.06354 12.018 4.18213C11.8471 4.30072 11.7164 4.46868 11.6436 4.66356L11.6402 4.67445L10.156 8.87978C10.1326 8.94618 10.0893 9.00371 10.0318 9.04443C9.9744 9.08516 9.90576 9.10707 9.83536 9.10716H5.68994C5.48013 9.10701 5.27536 9.17148 5.10349 9.29181C4.93161 9.41214 4.80097 9.5825 4.72934 9.7797C4.6577 9.9769 4.64854 10.1914 4.70311 10.394C4.75769 10.5966 4.87333 10.7774 5.03433 10.912L8.56362 13.8394C8.61641 13.8832 8.65473 13.942 8.67356 14.0079C8.69239 14.0739 8.69085 14.144 8.66914 14.2091L7.18635 18.6554C7.11782 18.861 7.11647 19.0831 7.18249 19.2895C7.2485 19.4959 7.37846 19.6759 7.55357 19.8036C7.72868 19.9312 7.93986 19.9999 8.15656 19.9996C8.37326 19.9993 8.58425 19.9301 8.75901 19.8019L12.3986 17.1332C12.4569 17.0904 12.5274 17.0674 12.5998 17.0674C12.6721 17.0674 12.7426 17.0904 12.8009 17.1332L16.4392 19.8012C16.6138 19.9298 16.8249 19.9994 17.0418 20C17.2587 20.0006 17.4702 19.9321 17.6455 19.8044C17.8209 19.6768 17.951 19.4966 18.0171 19.29C18.0832 19.0834 18.0819 18.8612 18.0132 18.6554L16.5304 14.2064C16.5087 14.1413 16.5071 14.0712 16.526 14.0052C16.5448 13.9393 16.5831 13.8805 16.6359 13.8367L20.172 10.9052C20.3309 10.7695 20.4444 10.5883 20.4971 10.3861C20.5499 10.1839 20.5393 9.97036 20.4668 9.77435Z" fill="#FFBB7D"/>
</svg>
